<svg width="32" height="32" viewBox="0 0 32 32" fill="none" xmlns="http://www.w3.org/2000/svg">
<path fill="#000" fill-rule="evenodd" opacity=".4" d="M19.997 0.975517C20.292 1.22124 20.4965 1.55108 20.5445 1.93858C20.5825 2.35178 20.4928 2.74753 20.2341 3.07757C20.0704 3.27212 19.8961 3.39601 19.6715 3.51693C19.6673 4.43519 19.663 5.35345 19.6586 6.29954C20.3979 6.29794 21.1454 6.2523 21.878 6.36273C22.4294 6.4475 22.9572 6.61849 23.4595 6.85943C24.1352 7.18428 24.711 7.65452 25.2142 8.20131C26.1668 9.25869 26.5796 10.6976 26.578 12.1022C26.5779 14.8829 26.5772 17.6637 26.5765 20.4445C27.0135 20.4423 27.5172 20.3902 27.9401 20.5059C28.379 20.6323 28.7505 20.9538 29.0004 21.33C29.3178 21.8146 29.4281 22.3535 29.4269 22.921C29.4296 24.802 29.4247 26.6831 29.4285 28.5641C29.4298 29.254 29.3508 29.9286 28.9446 30.5069C28.8675 30.6131 28.778 30.7082 28.689 30.8043C27.7648 31.7732 23.9981 31.5592 23.1884 30.7633C22.6832 30.2595 22.4916 29.5468 22.4895 28.8509C22.4899 27.8437 22.4913 26.8365 22.4928 25.8293C21.7116 26.0491 20.9021 26.0256 20.0974 26.026C17.2092 26.0276 14.3209 26.0207 11.4326 26.0259C10.9081 26.0268 10.386 25.9745 9.88084 25.8293C9.88298 26.8481 9.88066 27.867 9.88545 28.8858C9.88663 29.1494 9.86066 29.4084 9.79762 29.6644C9.68765 30.0937 9.45886 30.4659 9.16084 30.7898C8.2598 31.7325 4.50874 31.5802 3.63676 30.7423C3.21051 30.3273 2.97043 29.6722 2.95999 29.0844C2.94265 27.174 2.95617 25.2624 2.95808 23.3519C2.95849 22.9252 2.93834 22.4965 3.04613 22.0793C3.16213 21.6468 3.37652 21.2874 3.6794 20.9623C3.95158 20.6776 4.35519 20.4614 4.75355 20.4433C5.10983 20.4382 5.4666 20.4437 5.82287 20.4445C5.8215 17.8391 5.81945 15.2337 5.81995 12.6283C5.82004 12.0901 5.80219 11.5489 5.87776 11.0147C6.02049 10.0481 6.43792 9.08286 7.07247 8.33497C7.30402 8.05677 7.55531 7.81873 7.82267 7.57752C8.63516 6.85125 9.7638 6.43772 10.8231 6.32401C11.4322 6.26451 12.0645 6.29851 12.6763 6.29954C12.6839 5.64186 12.6906 4.98371 12.6899 4.32596C12.6898 4.09084 12.7347 3.80815 12.6635 3.58134C12.6025 3.52069 12.5251 3.48697 12.4472 3.45312C12.0533 3.26703 11.7912 2.72116 11.773 2.32279C11.761 1.88105 11.873 1.4941 12.1776 1.16473C12.4687 0.858368 12.8486 0.702799 13.2689 0.690845C13.652 0.701738 13.9806 0.84352 14.2771 1.07958C14.5506 1.30472 14.7271 1.6734 14.7633 2.02257C14.7861 2.47558 14.6654 2.85877 14.3802 3.20946C14.2497 3.36798 14.0687 3.47773 13.8873 3.56846C13.883 4.46972 13.8788 5.37097 13.8744 6.29954C15.3878 6.29954 16.9013 6.29954 18.4606 6.29954C18.4606 5.38128 18.4606 4.46302 18.4606 3.51693C17.9557 3.34865 17.5875 2.78892 17.5564 2.27997C17.5383 1.84096 17.6666 1.47049 17.9418 1.13197C18.4399 0.527226 19.4102 0.496324 19.997 0.975517ZM18.8213 1.94527C18.7627 2.03091 18.7389 2.11276 18.7569 2.2158C18.7868 2.31109 18.837 2.37373 18.9243 2.42192C19.0117 2.45916 19.0984 2.45177 19.186 2.4187C19.2616 2.3695 19.3207 2.30204 19.3494 2.2158C19.3615 2.11236 19.3467 2.03035 19.285 1.94527C19.2188 1.87832 19.1485 1.84837 19.0548 1.83819C18.9661 1.84705 18.8798 1.87473 18.8213 1.94527ZM13.0499 1.98392C12.9834 2.07725 12.9613 2.15214 12.9726 2.26733C13.0267 2.44211 13.1853 2.52317 13.3591 2.48634C13.5259 2.43468 13.6041 2.25189 13.5544 2.0905C13.5191 2.01184 13.4735 1.96085 13.3978 1.91951C13.2767 1.87357 13.1432 1.88807 13.0499 1.98392ZM9.57167 9.22386C9.3517 9.39474 9.17124 9.58687 8.99095 9.79597C8.49183 10.3792 8.28102 11.1211 8.2817 11.8765C8.2799 13.7915 8.28576 15.7065 8.28013 17.6215C8.2777 18.5093 8.63278 19.325 9.24331 19.9624C9.66059 20.3957 10.2052 20.7044 10.7654 20.9078C11.3703 21.1246 11.9893 21.1682 12.6262 21.1675C15.0235 21.1686 17.4209 21.1651 19.8182 21.1676C20.1127 21.1678 20.4064 21.1641 20.699 21.1271C21.6054 21.0119 22.3936 20.6259 23.078 20.0308C23.6724 19.5113 24.1063 18.6474 24.1048 17.8692C24.1102 15.924 24.1031 13.9787 24.1094 12.0334C24.1125 10.999 23.7419 10.0788 23.0019 9.37382C22.6467 9.0356 22.2141 8.79379 21.7594 8.61658C21.2142 8.40687 20.6523 8.31553 20.0693 8.31718C17.4733 8.31386 14.8772 8.32439 12.2813 8.31704C11.3014 8.31448 10.3455 8.61819 9.57167 9.22386ZM4.44365 21.8933C4.1593 22.2648 4.16104 22.653 4.16104 23.1111C5.65321 23.1111 7.14539 23.1111 8.68278 23.1111C8.69045 22.8527 8.69324 22.5901 8.62415 22.338C8.54508 22.0513 8.31705 21.6419 7.9698 21.6408C7.36976 21.6373 6.76968 21.639 6.16963 21.6369C5.68648 21.6352 4.78861 21.4872 4.44365 21.8933ZM23.9693 21.9123C23.7024 22.281 23.6908 22.673 23.6908 23.124C25.1873 23.124 26.6837 23.124 28.2255 23.124C28.2307 22.857 28.2318 22.5822 28.1558 22.3231C28.0762 22.0642 27.9285 21.8236 27.6844 21.6941C27.5877 21.6452 27.4965 21.6406 27.3902 21.6407C26.4265 21.6378 25.4626 21.6461 24.4989 21.6375C24.2806 21.6392 24.1051 21.7448 23.9693 21.9123ZM4.16104 23.8197C4.16104 24.3851 4.16104 24.9505 4.16104 25.533C5.65321 25.533 7.14539 25.533 8.68278 25.533C8.68278 24.9676 8.68278 24.4022 8.68278 23.8197C7.1906 23.8197 5.69843 23.8197 4.16104 23.8197ZM23.6908 23.8326C23.6908 24.3937 23.6908 24.9549 23.6908 25.533C25.1873 25.533 26.6837 25.533 28.2255 25.533C28.2255 24.9676 28.2255 24.4022 28.2255 23.8197C26.7284 23.8189 25.2314 23.8186 23.7343 23.8181C23.7043 23.8162 23.7043 23.8162 23.6908 23.8326ZM4.16104 26.2287C4.16104 26.7941 4.16104 27.3595 4.16104 27.9421C5.65321 27.9421 7.14539 27.9421 8.68278 27.9421C8.68278 27.3766 8.68278 26.8112 8.68278 26.2287C7.1906 26.2287 5.69843 26.2287 4.16104 26.2287ZM23.6908 26.2416C23.6908 26.8027 23.6908 27.3639 23.6908 27.9421C25.1873 27.9421 26.6837 27.9421 28.2255 27.9421C28.2255 27.3809 28.2255 26.8197 28.2255 26.2416C28.2029 26.219 28.1713 26.2271 28.1406 26.2271C26.6718 26.2239 25.203 26.2268 23.7342 26.2271C23.7043 26.2252 23.7043 26.2252 23.6908 26.2416ZM4.16104 28.6377C4.15555 28.9287 4.15709 29.2262 4.2525 29.5055C4.33025 29.7243 4.46609 29.9364 4.67508 30.0492C4.7765 30.097 4.85953 30.1082 4.97051 30.1081C5.9473 30.111 6.92433 30.1028 7.90107 30.1114C8.06467 30.1101 8.20531 30.0449 8.32584 29.9354C8.46384 29.7952 8.55031 29.6237 8.61391 29.4396C8.70097 29.1696 8.68278 28.9256 8.68278 28.6377C7.1906 28.6377 5.69843 28.6377 4.16104 28.6377ZM23.6908 28.6506C23.6908 29.1655 23.7791 30.1158 24.4831 30.1113C25.4775 30.1165 26.4721 30.1029 27.4664 30.1131C28.1536 30.1055 28.2255 29.1425 28.2255 28.6506C26.729 28.6506 25.2326 28.6506 23.6908 28.6506Z" />
<path fill="#000" fill-rule="evenodd" opacity=".4" d="M20.7662 11.5942C21.1406 11.915 21.4088 12.3709 21.449 12.8695C21.4579 13.0988 21.4486 13.3237 21.3999 13.549C21.3175 13.8951 21.1215 14.1837 20.8836 14.4418C20.5668 14.7739 20.0911 14.9706 19.6358 14.9859C19.4509 14.9895 19.2694 14.977 19.0886 14.9373C18.7679 14.8644 18.4954 14.7004 18.2467 14.4904C18.1562 14.4123 18.0839 14.3191 18.0076 14.2279C17.6989 13.8454 17.5828 13.3285 17.6318 12.8462C17.6834 12.4043 17.8959 12.0271 18.1931 11.7042C18.3412 11.5488 18.5228 11.4382 18.7111 11.3386C19.3644 11.0067 20.2119 11.1235 20.7662 11.5942ZM18.8596 12.264C18.6517 12.4299 18.533 12.6758 18.5089 12.9397C18.4989 13.1012 18.5257 13.2552 18.575 13.4083C18.6612 13.6458 18.8585 13.8462 19.0834 13.9557C19.355 14.073 19.6369 14.0894 19.9136 13.9806C20.184 13.8681 20.3693 13.6652 20.4828 13.3977C20.5281 13.267 20.5479 13.1358 20.5472 12.9983C20.2121 12.9951 19.8771 13.011 19.5424 13.0241C19.6826 12.7365 19.8258 12.45 19.9583 12.1587C19.9691 12.1354 19.9691 12.1354 19.9675 12.1095C19.9244 12.0934 19.8811 12.0776 19.8379 12.0617C19.5008 11.9468 19.1256 12.032 18.8596 12.264Z"/>
<path fill="#000" fill-rule="evenodd" opacity=".4" d="M14.0806 11.5943C14.455 11.9152 14.7232 12.3711 14.7634 12.8697C14.7723 13.099 14.763 13.3239 14.7143 13.5492C14.632 13.8952 14.4359 14.1839 14.198 14.442C13.8812 14.7741 13.4055 14.9708 12.9502 14.986C12.7653 14.9897 12.5838 14.9772 12.4031 14.9375C12.0823 14.8646 11.8098 14.7005 11.5611 14.4906C11.4706 14.4125 11.3983 14.3193 11.322 14.228C11.0133 13.8455 10.8972 13.3287 10.9462 12.8464C10.9978 12.4045 11.2103 12.0273 11.5075 11.7044C11.6556 11.5489 11.8372 11.4384 12.0255 11.3388C12.6788 11.0069 13.5263 11.1237 14.0806 11.5943ZM12.174 12.2642C11.9661 12.43 11.8474 12.6759 11.8233 12.9398C11.8133 13.1014 11.8401 13.2554 11.8895 13.4085C11.9756 13.646 12.1729 13.8464 12.3979 13.9559C12.6694 14.0732 12.9514 14.0896 13.228 13.9808C13.4984 13.8683 13.6838 13.6654 13.7972 13.3979C13.8425 13.2672 13.8623 13.136 13.8616 12.9985C13.5266 12.9953 13.1916 13.0111 12.8568 13.0243C12.997 12.7367 13.1402 12.4502 13.2727 12.1589C13.2835 12.1356 13.2835 12.1356 13.2819 12.1096C13.2388 12.0936 13.1955 12.0778 13.1523 12.0618C12.8153 11.947 12.44 12.0321 12.174 12.2642Z"/>
</svg>
