<svg width="40" height="40" viewBox="0 0 40 40" fill="none" xmlns="http://www.w3.org/2000/svg">
<g clip-path="url(#clip0_139_2)">
<path d="M31.25 0H8.75C3.91751 0 0 3.91751 0 8.75V31.25C0 36.0825 3.91751 40 8.75 40H31.25C36.0825 40 40 36.0825 40 31.25V8.75C40 3.91751 36.0825 0 31.25 0Z" fill="url(#paint0_radial_139_2)"/>
<path d="M31.25 1.25H8.75C4.60786 1.25 1.25 4.60786 1.25 8.75V31.25C1.25 35.3921 4.60786 38.75 8.75 38.75H31.25C35.3921 38.75 38.75 35.3921 38.75 31.25V8.75C38.75 4.60786 35.3921 1.25 31.25 1.25Z" fill="url(#paint1_radial_139_2)"/>
<path fill-rule="evenodd" clip-rule="evenodd" d="M23.2471 7.79261C23.4868 7.99226 23.653 8.26026 23.692 8.5751C23.7228 8.91083 23.65 9.23237 23.4398 9.50053C23.3068 9.6586 23.1651 9.75926 22.9827 9.85751C22.9792 10.6036 22.9757 11.3497 22.9722 12.1184C23.5729 12.1171 24.1802 12.08 24.7754 12.1697C25.2235 12.2386 25.6523 12.3775 26.0604 12.5733C26.6094 12.8372 27.0772 13.2193 27.4861 13.6636C28.2601 14.5227 28.5955 15.6918 28.5942 16.833C28.5941 19.0924 28.5935 21.3518 28.593 23.6112C28.948 23.6094 29.3573 23.567 29.7009 23.661C30.0575 23.7637 30.3593 24.025 30.5624 24.3306C30.8203 24.7244 30.9099 25.1622 30.9089 25.6233C30.9111 27.1516 30.9071 28.68 30.9102 30.2083C30.9113 30.7689 30.8471 31.317 30.517 31.7869C30.4544 31.8731 30.3817 31.9504 30.3094 32.0285C29.5585 32.8157 26.498 32.6419 25.8401 31.9952C25.4297 31.5858 25.274 31.0068 25.2723 30.4414C25.2726 29.623 25.2737 28.8047 25.275 27.9863C24.6402 28.1649 23.9825 28.1458 23.3287 28.1461C20.982 28.1474 18.6353 28.1418 16.2885 28.146C15.8624 28.1468 15.4382 28.1043 15.0277 27.9863C15.0295 28.8141 15.0276 29.6419 15.0315 30.4697C15.0324 30.6839 15.0113 30.8943 14.9601 31.1023C14.8708 31.4511 14.6849 31.7535 14.4427 32.0167C13.7106 32.7827 10.6629 32.6589 9.95443 31.9781C9.6081 31.6409 9.41304 31.1087 9.40455 30.6311C9.39046 29.0789 9.40145 27.5257 9.403 25.9734C9.40333 25.6267 9.38696 25.2784 9.47454 24.9394C9.56879 24.588 9.74298 24.296 9.98907 24.0319C10.2102 23.8006 10.5382 23.6249 10.8618 23.6102C11.1513 23.606 11.4412 23.6105 11.7306 23.6112C11.7295 21.4943 11.7279 19.3774 11.7283 17.2605C11.7283 16.8232 11.7138 16.3835 11.7752 15.9494C11.8912 15.1641 12.2304 14.3798 12.7459 13.7722C12.9341 13.5461 13.1383 13.3527 13.3555 13.1567C14.0156 12.5666 14.9326 12.2307 15.7933 12.1383C16.2882 12.0899 16.802 12.1175 17.2991 12.1184C17.3052 11.584 17.3107 11.0493 17.3101 10.5148C17.31 10.3238 17.3465 10.0941 17.2887 9.90984C17.2391 9.86056 17.1762 9.83317 17.1129 9.80566C16.7929 9.65447 16.5799 9.21095 16.5651 8.88727C16.5554 8.52836 16.6464 8.21396 16.8939 7.94635C17.1304 7.69743 17.439 7.57103 17.7805 7.56132C18.0918 7.57017 18.3588 7.68536 18.5997 7.87716C18.8219 8.06009 18.9653 8.35964 18.9947 8.64334C19.0133 9.01141 18.9152 9.32275 18.6835 9.60769C18.5774 9.73649 18.4304 9.82566 18.283 9.89938C18.2795 10.6317 18.2761 11.3639 18.2725 12.1184C19.5021 12.1184 20.7319 12.1184 21.9988 12.1184C21.9988 11.3723 21.9988 10.6262 21.9988 9.85751C21.5886 9.72078 21.2894 9.266 21.2641 8.85248C21.2494 8.49578 21.3537 8.19478 21.5773 7.91973C21.982 7.42838 22.7703 7.40327 23.2471 7.79261ZM22.2919 8.58054C22.2443 8.65012 22.2249 8.71662 22.2395 8.80034C22.2638 8.87776 22.3046 8.92866 22.3756 8.96781C22.4466 8.99807 22.517 8.99207 22.5882 8.9652C22.6496 8.92522 22.6976 8.87041 22.7209 8.80034C22.7308 8.7163 22.7188 8.64966 22.6686 8.58054C22.6148 8.52614 22.5577 8.5018 22.4816 8.49353C22.4095 8.50073 22.3394 8.52322 22.2919 8.58054ZM17.6026 8.61194C17.5486 8.68777 17.5306 8.74862 17.5398 8.84221C17.5838 8.98422 17.7126 9.05008 17.8538 9.02016C17.9894 8.97818 18.0529 8.82966 18.0125 8.69854C17.9838 8.63462 17.9468 8.59319 17.8853 8.55961C17.7869 8.52228 17.6784 8.53406 17.6026 8.61194ZM14.7765 14.4944C14.5978 14.6332 14.4512 14.7893 14.3047 14.9592C13.8992 15.4331 13.7279 16.0359 13.7284 16.6497C13.727 18.2056 13.7317 19.7615 13.7272 21.3175C13.7252 22.0388 14.0137 22.7016 14.5098 23.2195C14.8488 23.5715 15.2913 23.8223 15.7464 23.9876C16.2379 24.1637 16.7409 24.1992 17.2583 24.1986C19.2062 24.1995 21.154 24.1966 23.1018 24.1987C23.3411 24.1988 23.5798 24.1958 23.8175 24.1658C24.5539 24.0722 25.1944 23.7585 25.7504 23.275C26.2334 22.8529 26.5859 22.151 26.5847 21.5187C26.5891 19.9383 26.5833 18.3577 26.5884 16.7771C26.591 15.9367 26.2899 15.189 25.6886 14.6162C25.4 14.3414 25.0485 14.145 24.6791 14.001C24.2361 13.8306 23.7796 13.7564 23.3059 13.7577C21.1966 13.755 19.0873 13.7636 16.9781 13.7576C16.1819 13.7555 15.4053 14.0023 14.7765 14.4944ZM10.61 24.7883C10.379 25.0902 10.3804 25.4056 10.3804 25.7778C11.5928 25.7778 12.8052 25.7778 14.0543 25.7778C14.0606 25.5678 14.0628 25.3545 14.0067 25.1496C13.9424 24.9167 13.7572 24.584 13.475 24.5832C12.9875 24.5803 12.4999 24.5817 12.0124 24.58C11.6198 24.5786 10.8903 24.4584 10.61 24.7883ZM26.4746 24.8037C26.2578 25.1033 26.2483 25.4218 26.2483 25.7883C27.4642 25.7883 28.6801 25.7883 29.9328 25.7883C29.937 25.5713 29.9379 25.348 29.8761 25.1375C29.8115 24.9272 29.6915 24.7317 29.4931 24.6265C29.4146 24.5867 29.3405 24.583 29.2541 24.5831C28.4711 24.5807 27.6879 24.5875 26.9049 24.5805C26.7275 24.5819 26.585 24.6677 26.4746 24.8037ZM10.3804 26.3535C10.3804 26.8129 10.3804 27.2723 10.3804 27.7456C11.5928 27.7456 12.8052 27.7456 14.0543 27.7456C14.0543 27.2862 14.0543 26.8268 14.0543 26.3535C12.8419 26.3535 11.6295 26.3535 10.3804 26.3535ZM26.2483 26.364C26.2483 26.8199 26.2483 27.2759 26.2483 27.7456C27.4642 27.7456 28.6801 27.7456 29.9328 27.7456C29.9328 27.2862 29.9328 26.8268 29.9328 26.3535C28.7164 26.3529 27.5001 26.3526 26.2837 26.3522C26.2593 26.3507 26.2593 26.3507 26.2483 26.364ZM10.3804 28.3108C10.3804 28.7702 10.3804 29.2296 10.3804 29.703C11.5928 29.703 12.8052 29.703 14.0543 29.703C14.0543 29.2435 14.0543 28.7841 14.0543 28.3108C12.8419 28.3108 11.6295 28.3108 10.3804 28.3108ZM26.2483 28.3213C26.2483 28.7772 26.2483 29.2332 26.2483 29.703C27.4642 29.703 28.6801 29.703 29.9328 29.703C29.9328 29.247 29.9328 28.791 29.9328 28.3213C29.9144 28.3029 29.8887 28.3095 29.8638 28.3095C28.6704 28.3069 27.477 28.3093 26.2836 28.3095C26.2593 28.308 26.2593 28.308 26.2483 28.3213ZM10.3804 30.2681C10.3759 30.5046 10.3772 30.7463 10.4547 30.9732C10.5179 31.151 10.6283 31.3233 10.7981 31.415C10.8805 31.4538 10.9479 31.4629 11.0381 31.4628C11.8317 31.4652 12.6256 31.4585 13.4192 31.4655C13.5521 31.4645 13.6664 31.4115 13.7643 31.3225C13.8764 31.2086 13.9467 31.0693 13.9984 30.9197C14.0691 30.7003 14.0543 30.5021 14.0543 30.2681C12.8419 30.2681 11.6295 30.2681 10.3804 30.2681ZM26.2483 30.2786C26.2483 30.697 26.3201 31.4691 26.8921 31.4654C27.7 31.4697 28.5081 31.4586 29.316 31.4669C29.8744 31.4607 29.9328 30.6783 29.9328 30.2786C28.7169 30.2786 27.501 30.2786 26.2483 30.2786Z" fill="black"/>
<path fill-rule="evenodd" clip-rule="evenodd" d="M23.8729 16.4203C24.1771 16.6809 24.395 17.0513 24.4276 17.4564C24.4349 17.6427 24.4273 17.8255 24.3878 18.0085C24.3208 18.2897 24.1616 18.5242 23.9683 18.7339C23.7109 19.0038 23.3244 19.1636 22.9544 19.176C22.8042 19.1789 22.6567 19.1688 22.5098 19.1365C22.2493 19.0773 22.0278 18.944 21.8258 18.7734C21.7522 18.71 21.6935 18.6342 21.6315 18.5601C21.3807 18.2494 21.2864 17.8294 21.3262 17.4375C21.3681 17.0785 21.5408 16.772 21.7822 16.5096C21.9026 16.3834 22.0501 16.2935 22.2031 16.2126C22.7339 15.9429 23.4225 16.0378 23.8729 16.4203ZM22.3238 16.9645C22.1548 17.0993 22.0584 17.2991 22.0388 17.5135C22.0307 17.6447 22.0525 17.7698 22.0925 17.8942C22.1626 18.0872 22.3229 18.25 22.5056 18.339C22.7263 18.4343 22.9553 18.4476 23.1801 18.3592C23.3998 18.2678 23.5504 18.1029 23.6426 17.8856C23.6794 17.7794 23.6955 17.6728 23.6949 17.5611C23.4227 17.5585 23.1505 17.5714 22.8785 17.5821C22.9924 17.3484 23.1088 17.1156 23.2165 16.8789C23.2252 16.86 23.2252 16.86 23.2239 16.8389C23.1889 16.8259 23.1537 16.813 23.1186 16.8001C22.8447 16.7067 22.5399 16.776 22.3238 16.9645Z" fill="black"/>
<path fill-rule="evenodd" clip-rule="evenodd" d="M18.4403 16.4204C18.7445 16.6811 18.9624 17.0515 18.995 17.4566C19.0023 17.6429 18.9947 17.8257 18.9551 18.0087C18.8883 18.2898 18.7289 18.5244 18.5356 18.7341C18.2782 19.004 17.8917 19.1638 17.5218 19.1761C17.3716 19.1791 17.2241 19.169 17.0773 19.1367C16.8166 19.0775 16.5952 18.9442 16.3932 18.7736C16.3196 18.7102 16.2609 18.6344 16.1989 18.5602C15.9481 18.2495 15.8537 17.8296 15.8936 17.4377C15.9355 17.0787 16.1081 16.7722 16.3496 16.5098C16.4699 16.3835 16.6175 16.2937 16.7705 16.2128C17.3013 15.9431 17.9899 16.038 18.4403 16.4204ZM16.8911 16.9647C16.7222 17.0994 16.6258 17.2992 16.6062 17.5136C16.5981 17.6449 16.6198 17.77 16.66 17.8944C16.7299 18.0874 16.8902 18.2502 17.0731 18.3392C17.2937 18.4345 17.5228 18.4478 17.7475 18.3594C17.9672 18.268 18.1179 18.1031 18.21 17.8858C18.2468 17.7796 18.2629 17.673 18.2623 17.5613C17.9901 17.5587 17.7179 17.5715 17.4459 17.5822C17.5598 17.3486 17.6762 17.1158 17.7838 16.8791C17.7926 16.8602 17.7926 16.8602 17.7913 16.839C17.7563 16.826 17.7211 16.8132 17.686 16.8002C17.4122 16.7069 17.1073 16.7761 16.8911 16.9647Z" fill="black"/>
</g>
<defs>
<radialGradient id="paint0_radial_139_2" cx="0" cy="0" r="1" gradientUnits="userSpaceOnUse" gradientTransform="translate(20) rotate(90) scale(40)">
<stop stop-color="#191B29"/>
<stop offset="0.5" stop-color="#6056F7"/>
</radialGradient>
<radialGradient id="paint1_radial_139_2" cx="0" cy="0" r="1" gradientUnits="userSpaceOnUse" gradientTransform="translate(20 38.75) rotate(-90) scale(50.75)">
<stop stop-color="#312E81"/>
<stop offset="0.5" stop-color="#EBEBEB"/>
</radialGradient>
<clipPath id="clip0_139_2">
<rect width="40" height="40" fill="white"/>
</clipPath>
</defs>
</svg>
